<svg width="23" height="20" viewBox="0 0 23 20" fill="none" xmlns="http://www.w3.org/2000/svg">
<path d="M11.5 20C11.1726 20 10.8569 19.8841 10.6109 19.6734C9.68172 18.8794 8.78591 18.1331 7.99557 17.4749L7.99153 17.4714C5.67437 15.5415 3.67342 13.8747 2.28119 12.2329C0.724892 10.3974 0 8.65708 0 6.75591C0 4.90876 0.648033 3.20464 1.8246 1.95726C3.01521 0.695126 4.64889 0 6.42523 0C7.75288 0 8.96876 0.410249 10.039 1.21926C10.5791 1.62762 11.0687 2.1274 11.5 2.71036C11.9315 2.1274 12.4209 1.62762 12.9612 1.21926C14.0314 0.410249 15.2473 0 16.5749 0C18.3511 0 19.985 0.695126 21.1756 1.95726C22.3521 3.20464 23 4.90876 23 6.75591C23 8.65708 22.2753 10.3974 20.719 12.2327C19.3268 13.8747 17.326 15.5413 15.0092 17.4711C14.2174 18.1304 13.3202 18.8778 12.389 19.6738C12.1431 19.8841 11.8273 20 11.5 20ZM6.42523 1.31685C5.02967 1.31685 3.74764 1.86121 2.81499 2.84979C1.86847 3.85329 1.34713 5.24046 1.34713 6.75591C1.34713 8.35489 1.95515 9.78493 3.31843 11.3927C4.63608 12.9467 6.59597 14.5791 8.86523 16.4693L8.86944 16.4727C9.66277 17.1336 10.5621 17.8827 11.4981 18.6826C12.4397 17.8812 13.3404 17.1308 14.1353 16.469C16.4044 14.5788 18.3641 12.9467 19.6817 11.3927C21.0448 9.78493 21.6529 8.35489 21.6529 6.75591C21.6529 5.24046 21.1315 3.85329 20.185 2.84979C19.2525 1.86121 17.9703 1.31685 16.5749 1.31685C15.5526 1.31685 14.614 1.63448 13.7852 2.26083C13.0466 2.81926 12.5322 3.52519 12.2305 4.01914C12.0754 4.27315 11.8023 4.42476 11.5 4.42476C11.1977 4.42476 10.9246 4.27315 10.7695 4.01914C10.468 3.52519 9.95353 2.81926 9.21478 2.26083C8.386 1.63448 7.44738 1.31685 6.42523 1.31685Z" fill="#F51264"/>
</svg>
