<svg width="29" height="43" viewBox="0 0 29 43" fill="none" xmlns="http://www.w3.org/2000/svg">
<path d="M25.1228 21.1069C26.0132 13.5299 22.5643 5.80596 15.3284 0.252997C14.8888 -0.0843324 14.1112 -0.0843324 13.6716 0.252997C6.43568 5.80596 2.98679 13.5213 3.87719 21.1069C1.37505 23.1741 1.7198e-07 25.8382 1.7198e-07 28.6752C1.7198e-07 31.5382 1.42013 34.2627 4.00117 36.3386C4.63234 36.8489 6.24407 36.6154 5.98484 35.491C5.84959 34.9028 5.68053 34.3319 5.68053 33.7697C5.68053 32.3685 6.2328 31.0365 7.25845 29.9121C7.42752 29.9813 7.61912 30.0245 7.822 30.0245H21.178C21.3809 30.0245 21.5725 29.9813 21.7415 29.9121C22.7672 31.0365 23.3195 32.3685 23.3195 33.7697C23.3195 34.3319 23.1279 34.8942 23.0152 35.491C22.7785 36.7365 24.4691 36.7797 24.9988 36.3386C27.5686 34.2541 29 31.5382 29 28.6752C28.9887 25.8382 27.625 23.1655 25.1228 21.1069ZM14.4944 2.19048C16.5908 3.92038 18.3039 5.86651 19.6339 7.93373H9.36611C10.6848 5.85786 12.398 3.92038 14.4944 2.19048ZM3.44889 32.5501C2.72756 31.3479 2.35562 30.0332 2.35562 28.6752C2.35562 26.8415 3.04314 25.0857 4.32802 23.5806C4.33929 23.6498 5.56782 27.2567 6.0412 28.1822C4.63234 29.4277 3.74194 30.9327 3.44889 32.5501ZM20.4003 28.2168H8.58842C5.27478 22.2486 5.30859 15.5799 8.31792 9.72418H20.6708C23.6801 15.5799 23.714 22.2486 20.4003 28.2168ZM22.9588 28.1822C23.6125 26.8934 24.6607 23.6325 24.672 23.5806C25.9569 25.077 26.6444 26.8328 26.6444 28.6752C26.6444 30.0332 26.2612 31.3479 25.5511 32.5501C25.2468 30.9327 24.3564 29.4277 22.9588 28.1822Z" fill="white"/>
<path d="M9.74883 31.5295C9.09512 31.5295 8.57666 31.9361 8.57666 32.4291V36.9528C8.57666 37.4544 9.10639 37.8523 9.74883 37.8523C10.3913 37.8523 10.921 37.4458 10.921 36.9528V32.4291C10.921 31.9274 10.3913 31.5295 9.74883 31.5295Z" fill="white"/>
<path d="M14.494 31.5295C14.1671 31.5295 13.8741 31.6333 13.6599 31.7977C13.6599 31.7977 13.6599 31.7977 13.6487 31.8063C13.5134 31.9101 13.412 32.0485 13.3556 32.2042C13.3331 32.282 13.3105 32.3599 13.3105 32.4464V41.4851C13.3105 41.5543 13.3218 41.6235 13.3444 41.6927C13.4683 42.0906 13.9304 42.3846 14.4827 42.3846C15.035 42.3846 15.4971 42.0906 15.6211 41.6927C15.6436 41.6235 15.6549 41.5543 15.6549 41.4851V32.4291C15.6549 32.3426 15.6436 32.2647 15.6098 32.1869C15.4858 31.8063 15.035 31.5295 14.494 31.5295Z" fill="white"/>
<path d="M19.2396 31.5295C18.5858 31.5295 18.0674 31.9361 18.0674 32.4291V36.9528C18.0674 37.4544 18.5971 37.8523 19.2396 37.8523C19.882 37.8523 20.4117 37.4458 20.4117 36.9528V32.4291C20.423 31.9274 19.8933 31.5295 19.2396 31.5295Z" fill="white"/>
</svg>
